<?xml version="1.0" encoding="UTF-8" standalone="no"?>
<svg
   xmlns:dc="http://purl.org/dc/elements/1.1/"
   xmlns:cc="http://creativecommons.org/ns#"
   xmlns:rdf="http://www.w3.org/1999/02/22-rdf-syntax-ns#"
   xmlns:svg="http://www.w3.org/2000/svg"
   xmlns="http://www.w3.org/2000/svg"
   xmlns:sodipodi="http://sodipodi.sourceforge.net/DTD/sodipodi-0.dtd"
   xmlns:inkscape="http://www.inkscape.org/namespaces/inkscape"
   width="50"
   height="50"
   viewBox="0 0 13.229166 13.229167"
   version="1.1"
   id="svg8"
   inkscape:version="1.0.1 (3bc2e813f5, 2020-09-07)"
   sodipodi:docname="nav.svg">
  <defs
     id="defs2" />
  <sodipodi:namedview
     id="base"
     pagecolor="#ffffff"
     bordercolor="#666666"
     borderopacity="1.0"
     inkscape:pageopacity="0.0"
     inkscape:pageshadow="2"
     inkscape:zoom="1.979899"
     inkscape:cx="-42.321968"
     inkscape:cy="-26.708589"
     inkscape:document-units="mm"
     inkscape:current-layer="layer1"
     inkscape:document-rotation="0"
     showgrid="false"
     units="px"
     inkscape:window-width="1500"
     inkscape:window-height="1040"
     inkscape:window-x="144"
     inkscape:window-y="48"
     inkscape:window-maximized="0" />
  <metadata
     id="metadata5">
    <rdf:RDF>
      <cc:Work
         rdf:about="">
        <dc:format>image/svg+xml</dc:format>
        <dc:type
           rdf:resource="http://purl.org/dc/dcmitype/StillImage" />
        <dc:title></dc:title>
      </cc:Work>
    </rdf:RDF>
  </metadata>
  <g
     inkscape:label="Слой 1"
     inkscape:groupmode="layer"
     id="layer1">
    <g
       style="fill:none"
       id="g21"
       transform="matrix(0.26458333,0,0,0.26458333,0.0172456,-0.02537222)">
      <circle
         r="25"
         transform="scale(-1,1)"
         fill="#ffc149"
         id="circle10"
         cx="-25"
         cy="25.178572" />
    </g>
    <g
       style="fill:none"
       id="g34"
       transform="matrix(0.26458333,0,0,0.26458333,4.8050219,3.4010903)">
      <path
         d="M 15.5656,11.5245 3.4459,0.399387 C 3.16559,0.141869 2.7914,0 2.3924,0 1.99341,0 1.61922,0.141869 1.33891,0.399387 L 0.446376,1.21849 c -0.580776,0.53373 -0.580776,1.4012 0,1.93413 L 10.6236,12.4948 0.435083,21.8474 C 0.15477,22.1049 0,22.4482 0,22.8142 0,23.1807 0.15477,23.524 0.435083,23.7817 L 1.32761,24.6006 C 1.60815,24.8581 1.98212,25 2.38111,25 c 0.399,0 0.77319,-0.1419 1.0535,-0.3994 L 15.5656,13.4653 c 0.281,-0.2583 0.4353,-0.6032 0.4344,-0.9699 9e-4,-0.3681 -0.1534,-0.7128 -0.4344,-0.9709 z"
         fill="#000000"
         id="path23" />
    </g>
  </g>
</svg>
